PathFileType	4	(X/Y/Z)	/Users/itak/Documents/Research/Walk-IL/dataset/trc/00018_00004.trc
DataRate	CameraRate	NumFrames	NumMarkers	Units	OrigDataRate	OrigDataStartFrame	OrigNumFrames
100.000000	100.000000	4	54	mm	100.000000	414	552
Frame#	Time	RPSI			LPSI			L3			STRN			T10			C7			CLAV			RBAK			LBAK			LSHO			LUPA			LAEL			LAOL			LWPS			LFRA			LIFD			LHPS			LHTS			RSHO			RUPA			RAEL			RAOL			RWTS			RWPS			RFRA			RIFD			RHTS			RHPS			RBHD			LFHD			RFHD			LBHD			LHIP			RHIP			RASI			LASI			LKNE			LTHI			LANK			LTIP			LTOE			LMT1			LMT5			LHEE			RKNE			RTHI			RANK			RTIP			RTOE			RMT1			RMT5			RHEE			LWTS			*53			
		X1	Y1	Z1	X2	Y2	Z2	X3	Y3	Z3	X4	Y4	Z4	X5	Y5	Z5	X6	Y6	Z6	X7	Y7	Z7	X8	Y8	Z8	X9	Y9	Z9	X10	Y10	Z10	X11	Y11	Z11	X12	Y12	Z12	X13	Y13	Z13	X14	Y14	Z14	X15	Y15	Z15	X16	Y16	Z16	X17	Y17	Z17	X18	Y18	Z18	X19	Y19	Z19	X20	Y20	Z20	X21	Y21	Z21	X22	Y22	Z22	X23	Y23	Z23	X24	Y24	Z24	X25	Y25	Z25	X26	Y26	Z26	X27	Y27	Z27	X28	Y28	Z28	X29	Y29	Z29	X30	Y30	Z30	X31	Y31	Z31	X32	Y32	Z32	X33	Y33	Z33	X34	Y34	Z34	X35	Y35	Z35	X36	Y36	Z36	X37	Y37	Z37	X38	Y38	Z38	X39	Y39	Z39	X40	Y40	Z40	X41	Y41	Z41	X42	Y42	Z42	X43	Y43	Z43	X44	Y44	Z44	X45	Y45	Z45	X46	Y46	Z46	X47	Y47	Z47	X48	Y48	Z48	X49	Y49	Z49	X50	Y50	Z50	X51	Y51	Z51	X52	Y52	Z52	X53	Y53	Z53	X54	Y54	Z54	

415	4.14	-878.8197021484375	1063.9931640625	-134.7321624755859	-894.5139770507812	1059.650146484375	-296.6517944335938	-886.6842651367188	1125.98779296875	-221.7604217529297	-641.2986450195312	1306.432495117188	-243.4023590087891	-889.263916015625	1271.915161132812	-217.0656585693359	-830.9534301757812	1536.069458007812	-233.0480041503906	-677.2566528320312	1435.104125976562	-246.1430206298828	-878.3744506835938	1401.953369140625	-145.9809265136719	-860.2861938476562	1495.543579101562	-328.8858337402344	-765.0856323242188	1496.907348632812	-413.8048706054688	-811.515869140625	1375.787719726562	-486.8971862792969	-833.243408203125	1160.512451171875	-516.248779296875	-879.9581909179688	1149.525634765625	-421.8297424316406	-819.4348754882812	893.1238403320312	-503.5754089355469	-821.999755859375	1044.23486328125	-523.9779663085938	-703.97265625	727.985595703125	-453.4204711914062	-784.067626953125	804.5099487304688	-505.9650268554688	-716.4396362304688	816.7457885742188	-486.1328125	-733.7817993164062	1518.703979492188	-69.24239349365234	-734.3431396484375	1445.066772460938	4.462186813354492	-728.0143432617188	1172.912475585938	33.3093376159668	-754.1321411132812	1143.5859375	-59.40398406982422	-571.171630859375	938.5640869140625	-42.72015380859375	-613.5867309570312	912.6083374023438	34.83102798461914	-699.28857421875	1099.346557617188	41.66193389892578	-522.2504272460938	758.73486328125	-68.04849243164062	-516.6807861328125	836.6233520507812	-41.84835433959961	-557.2686767578125	822.122314453125	19.24259948730469	-753.6741943359375	1712.939208984375	-157.7860107421875	-582.1873168945312	1712.748168945312	-282.0637817382812	-580.1410522460938	1709.940185546875	-183.4752655029297	-763.4346313476562	1722.927978515625	-302.1372680664062	-807.6580810546875	961.153564453125	-414.6375122070312	-766.839111328125	949.1930541992188	-39.60626220703125	-667.0202026367188	976.8557739257812	-122.1383438110352	-689.2608642578125	999.7459106445312	-355.2267456054688	-631.105712890625	543.5878295898438	-371.5131225585938	-702.0213623046875	664.8164672851562	-409.8951416015625	-617.5015869140625	50.04141616821289	-386.6334838867188	-653.2214965820312	296.9244995117188	-397.2666931152344	-406.2864990234375	100.2339096069336	-322.9472045898438	-463.7080078125	91.58675384521484	-304.0750427246094	-497.6742248535156	81.63919067382812	-405.0148620605469	-685.5851440429688	39.16337585449219	-333.39892578125	-778.583740234375	511.5600280761719	-101.9031524658203	-751.4099731445312	780.1143188476562	-49.45263290405273	-953.302734375	44.13848495483398	-143.4145812988281	-816.2567749023438	387.8580627441406	-106.2735748291016	-721.0686645507812	46.65874099731445	-182.9034881591797	-784.2327880859375	49.61481857299805	-213.5126647949219	-802.2025146484375	43.69517135620117	-117.5769348144531	-1008.202270507812	46.33865737915039	-189.2271118164062	-738.7027587890625	909.3427734375	-469.618408203125	nan	nan	nan	
416	4.15	-883.3853149414062	1064.591064453125	-133.2865295410156	-899.5599365234375	1060.470458984375	-295.1487426757812	-891.3908081054688	1126.8408203125	-220.4425048828125	-646.2630004882812	1307.551025390625	-242.5282897949219	-894.7899780273438	1273.086059570312	-216.3953704833984	-835.926025390625	1537.131103515625	-232.5615234375	-682.1863403320312	1436.220825195312	-245.2830810546875	-883.5680541992188	1403.127563476562	-145.5211639404297	-865.0590209960938	1496.6298828125	-328.4168090820312	-769.7105102539062	1498.09912109375	-413.137451171875	-815.7085571289062	1376.926513671875	-486.4031677246094	-836.4046020507812	1161.4521484375	-515.7735595703125	-883.575927734375	1150.33154296875	-421.5954895019531	-820.3973999023438	894.205322265625	-502.5895690917969	-824.1915893554688	1045.267944335938	-523.2578735351562	-703.3475952148438	730.4497680664062	-451.5664672851562	-784.3101196289062	805.8937377929688	-504.5725402832031	-716.892578125	818.7073974609375	-484.3860473632812	-739.063720703125	1519.876098632812	-68.56031036376953	-740.0994873046875	1446.354248046875	5.212789058685303	-736.0177001953125	1174.3369140625	34.42153549194336	-761.5763549804688	1145.036743164062	-58.40840911865234	-580.872802734375	938.2215576171875	-39.63285446166992	-624.1500244140625	912.947509765625	37.62408447265625	-708.045654296875	1100.573608398438	43.19799041748047	-533.7274169921875	757.7286987304688	-63.97573852539062	-527.5137939453125	835.6913452148438	-37.97896957397461	-568.6455078125	821.843017578125	22.83873558044434	-758.4298095703125	1714.072265625	-157.1579742431641	-586.7097778320312	1713.378295898438	-281.1219482421875	-584.8468017578125	1710.570678710938	-182.5276184082031	-767.9039916992188	1724.081909179688	-301.5136413574219	-812.8197631835938	962.5626220703125	-413.6812133789062	-770.8096313476562	949.81005859375	-38.624755859375	-671.4005126953125	977.90966796875	-121.5343475341797	-694.3092651367188	1001.061462402344	-354.509765625	-634.9361572265625	545.0104370117188	-371.4700622558594	-706.04052734375	666.5809936523438	-408.9803161621094	-631.2769165039062	50.15632247924805	-386.5399169921875	-661.39501953125	297.7566833496094	-396.9991149902344	-419.2109985351562	95.57435607910156	-322.3042907714844	-476.8769226074219	88.13243103027344	-303.5769653320312	-510.7269592285156	78.99233245849609	-404.5776672363281	-699.9740600585938	40.9272346496582	-333.5519409179688	-781.3238525390625	512.3432006835938	-101.9756851196289	-754.7986450195312	780.8065795898438	-49.05800247192383	-953.3255615234375	44.13539886474609	-143.4261932373047	-818.3380737304688	388.5379028320312	-106.3337173461914	-721.1151733398438	46.68982696533203	-182.9761047363281	-784.27490234375	49.62998199462891	-213.5811309814453	-802.2763671875	43.72402191162109	-117.6746520996094	-1008.179626464844	46.17863464355469	-189.1949462890625	-739.9739379882812	911.149169921875	-468.1924133300781	nan	nan	nan	
417	4.16	-887.7907104492188	1065.142211914062	-131.9535827636719	-904.3887939453125	1061.259887695312	-293.7625122070312	-895.90185546875	1127.689086914062	-219.1897125244141	-651.0892944335938	1308.669311523438	-241.6698150634766	-900.195556640625	1274.20263671875	-215.7446746826172	-840.8263549804688	1538.142944335938	-232.1092376708984	-687.0145874023438	1437.329711914062	-244.4573822021484	-888.6437377929688	1404.244995117188	-145.076171875	-869.7549438476562	1497.643310546875	-327.97216796875	-774.2557983398438	1499.236572265625	-412.4979248046875	-819.8320922851562	1378.013305664062	-485.936767578125	-839.5057373046875	1162.354858398438	-515.354248046875	-887.1216430664062	1151.096923828125	-421.4178771972656	-821.3126220703125	895.2647705078125	-501.6501770019531	-826.3348388671875	1046.268432617188	-522.5909423828125	-702.8719482421875	732.7833251953125	-449.7093505859375	-784.5208129882812	807.2521362304688	-503.2035827636719	-717.3377075195312	820.6381225585938	-482.6475830078125	-744.2531127929688	1521.031005859375	-67.91622161865234	-745.733154296875	1447.640625	5.931227684020996	-743.9760131835938	1175.770141601562	35.49416351318359	-768.9977416992188	1146.4931640625	-57.46429443359375	-590.61328125	937.8717651367188	-36.5503044128418	-634.7754516601562	913.2994995117188	40.38498306274414	-716.79296875	1101.8095703125	44.6863899230957	-545.3251953125	756.7099609375	-59.92138671875	-538.4346313476562	834.728759765625	-34.11976623535156	-580.1187744140625	821.56298828125	26.40321159362793	-763.1355590820312	1715.197387695312	-156.5863800048828	-591.2054443359375	1714.013061523438	-280.2620239257812	-589.5187377929688	1711.205688476562	-181.6596221923828	-772.3622436523438	1725.207885742188	-300.9361877441406	-817.6979370117188	963.9541625976562	-412.8127136230469	-774.7022705078125	950.3623657226562	-37.72562408447266	-675.6229858398438	978.9270629882812	-120.9197158813477	-699.1284790039062	1002.397827148438	-353.7877197265625	-638.6600341796875	546.364013671875	-371.4345397949219	-709.8594360351562	668.3068237304688	-408.0466613769531	-645.6110229492188	50.33478927612305	-386.4894104003906	-669.7529296875	298.59521484375	-396.7804565429688	-432.9145202636719	91.14747619628906	-321.34521484375	-490.8290100097656	84.8641357421875	-302.8843688964844	-524.3648071289062	76.46604919433594	-403.9851684570312	-714.9821166992188	42.73299789428711	-333.8525390625	-784.1162109375	513.0975341796875	-102.0447082519531	-758.1401977539062	781.4417114257812	-48.69244766235352	-953.33251953125	44.10671234130859	-143.4239959716797	-820.4561157226562	389.2125549316406	-106.3833770751953	-721.1743774414062	46.73095703125	-183.0426483154297	-784.3211059570312	49.65018081665039	-213.6389312744141	-802.3616333007812	43.74955749511719	-117.7725830078125	-1008.176330566406	46.00507736206055	-189.1681671142578	-741.2548828125	912.9058227539062	-466.8082885742188	nan	nan	nan	
418	4.17	-892.0441284179688	1065.658447265625	-130.7605285644531	-909.008056640625	1062.013793945312	-292.5218811035156	-900.2369384765625	1128.52294921875	-218.0357055664062	-655.7659301757812	1309.771362304688	-240.8188323974609	-905.4542846679688	1275.243286132812	-215.1269226074219	-845.6493530273438	1539.088256835938	-231.6869812011719	-691.740966796875	1438.413208007812	-243.6588897705078	-893.6016235351562	1405.282470703125	-144.6508331298828	-874.37158203125	1498.563842773438	-327.5514221191406	-778.7197265625	1500.2861328125	-411.8857421875	-823.8861694335938	1379.011596679688	-485.4900817871094	-842.5533447265625	1163.187133789062	-514.9889526367188	-890.620361328125	1151.782348632812	-421.301513671875	-822.1727294921875	896.27001953125	-500.7655029296875	-828.435546875	1047.2021484375	-521.9783325195312	-702.5487060546875	734.9479370117188	-447.850830078125	-784.6760864257812	808.5581665039062	-501.8729858398438	-717.7652587890625	822.52197265625	-480.9167175292969	-749.3577880859375	1522.144409179688	-67.29908752441406	-751.2603149414062	1448.89697265625	6.624836921691895	-751.8721313476562	1177.18359375	36.54051971435547	-776.3911743164062	1147.928344726562	-56.55764770507812	-600.3839111328125	937.499755859375	-33.48639297485352	-645.444580078125	913.6414184570312	43.10973739624023	-725.50537109375	1103.029663085938	46.13615798950195	-557.01025390625	755.6796875	-55.90466690063477	-549.4198608398438	833.72802734375	-30.29202842712402	-591.674560546875	821.2735595703125	29.9229850769043	-767.7894287109375	1716.29638671875	-156.0676116943359	-595.6773681640625	1714.64501953125	-279.4863891601562	-594.1559448242188	1711.838623046875	-180.8728942871094	-776.8076782226562	1726.284912109375	-300.4044799804688	-822.2935180664062	965.2933959960938	-412.038818359375	-778.5447387695312	950.8661499023438	-36.91746520996094	-679.7015380859375	979.9064331054688	-120.2947998046875	-703.7258911132812	1003.721313476562	-353.0667724609375	-642.2640380859375	547.5899047851562	-371.384521484375	-713.4678344726562	669.9581909179688	-407.0970458984375	-660.4119262695312	50.60947799682617	-386.4896850585938	-678.2672729492188	299.4364624023438	-396.6177062988281	-447.3108520507812	87.04049682617188	-320.1275024414062	-505.4602966308594	81.86660766601562	-302.0462341308594	-538.5209350585938	74.12734222412109	-403.2825622558594	-730.4783325195312	44.58857345581055	-334.2850646972656	-786.9310302734375	513.8148193359375	-102.0876007080078	-761.448486328125	782.0299682617188	-48.33568954467773	-953.3311767578125	44.05734252929688	-143.4082336425781	-822.5865478515625	389.8725891113281	-106.4077224731445	-721.243896484375	46.77976989746094	-183.1035614013672	-784.3698120117188	49.6748161315918	-213.6853637695312	-802.4525756835938	43.77508163452148	-117.8675003051758	-1008.194213867188	45.82424926757812	-189.1444702148438	-742.55859375	914.5928344726562	-465.4673767089844	nan	nan	nan	
